<?xml version="1.0" encoding="utf-8"?>
<!-- Generator: Adobe Illustrator 27.2.0, SVG Export Plug-In . SVG Version: 6.00 Build 0)  -->
<svg version="1.1" id="Layer_1" xmlns="http://www.w3.org/2000/svg" xmlns:xlink="http://www.w3.org/1999/xlink" x="0px" y="0px"
	 viewBox="0 0 500 500" style="enable-background:new 0 0 500 500;" xml:space="preserve">
<style type="text/css">
	.st0{stroke:#000000;stroke-width:2.4258;stroke-miterlimit:10;}
	.st1{stroke:#000000;stroke-width:1.5673;stroke-miterlimit:10;}
	.st2{fill:none;stroke:#000000;stroke-width:4;stroke-miterlimit:10;}
	.st3{fill:none;stroke:#000000;stroke-width:8;stroke-miterlimit:10;}
	.st4{fill:none;stroke:#000000;stroke-width:6;stroke-miterlimit:10;}
</style>
<circle class="st0" cx="179.2" cy="264.28" r="29.84"/>
<circle class="st0" cx="289.76" cy="178.57" r="29.84"/>
<circle class="st1" cx="349.38" cy="124.53" r="19.28"/>
<circle class="st1" cx="368.66" cy="193.48" r="19.28"/>
<circle class="st1" cx="225.81" cy="117.08" r="19.28"/>
<line class="st2" x1="241.07" y1="128.86" x2="269.91" y2="159.91"/>
<line class="st2" x1="341.96" y1="136.36" x2="315.51" y2="163.49"/>
<line class="st2" x1="364.32" y1="193.48" x2="315.25" y2="186.62"/>
<circle class="st0" cx="351.78" cy="345.94" r="29.84"/>
<circle class="st1" cx="369.22" cy="424.49" r="19.28"/>
<circle class="st1" cx="299.77" cy="407.12" r="19.28"/>
<circle class="st1" cx="436.86" cy="320.81" r="19.28"/>
<line class="st2" x1="419.07" y1="328.24" x2="377.81" y2="337.93"/>
<line class="st2" x1="362.61" y1="412.19" x2="352.13" y2="375.78"/>
<line class="st2" x1="301.92" y1="403.35" x2="332.16" y2="364.11"/>
<circle class="st0" cx="125.81" cy="378.88" r="29.84"/>
<circle class="st1" cx="66.19" cy="432.91" r="19.28"/>
<circle class="st1" cx="46.9" cy="363.97" r="19.28"/>
<circle class="st1" cx="189.76" cy="440.36" r="19.28"/>
<line class="st2" x1="174.5" y1="428.58" x2="145.66" y2="397.53"/>
<line class="st2" x1="73.61" y1="421.08" x2="100.06" y2="393.95"/>
<line class="st2" x1="51.25" y1="363.97" x2="100.31" y2="370.82"/>
<line class="st3" x1="179.2" y1="264.28" x2="289.76" y2="178.57"/>
<line class="st4" x1="289.76" y1="178.57" x2="351.78" y2="345.94"/>
<line class="st4" x1="179.2" y1="264.28" x2="125.81" y2="378.88"/>
</svg>
